<mxfile host="Electron" agent="Mozilla/5.0 (Windows NT 10.0; Win64; x64) AppleWebKit/537.36 (KHTML, like Gecko) draw.io/26.0.3 Chrome/130.0.6723.137 Electron/33.2.1 Safari/537.36" version="26.0.3">
  <diagram id="EpRN7AvFWJsa4IB050oW" name="Page-1">
    <mxGraphModel dx="1037" dy="751" grid="1" gridSize="10" guides="1" tooltips="1" connect="1" arrows="1" fold="1" page="1" pageScale="1" pageWidth="1600" pageHeight="900" math="0" shadow="0">
      <root>
        <mxCell id="0" />
        <mxCell id="1" parent="0" />
        <mxCell id="dAErLzjoi8gS7lEGY0VP-1" value="1" style="ellipse;whiteSpace=wrap;html=1;aspect=fixed;fillColor=none;fontSize=18;fontFamily=Segoe UI Variable Display;fontColor=#0066CC;strokeColor=#0066CC;" parent="1" vertex="1">
          <mxGeometry x="360" y="160" width="40" height="40" as="geometry" />
        </mxCell>
        <mxCell id="dAErLzjoi8gS7lEGY0VP-3" value="2" style="ellipse;whiteSpace=wrap;html=1;aspect=fixed;fillColor=none;fontSize=18;fontFamily=Segoe UI Variable Display;fontColor=#0066CC;strokeColor=#0066CC;" parent="1" vertex="1">
          <mxGeometry x="440" y="80" width="40" height="40" as="geometry" />
        </mxCell>
        <mxCell id="dAErLzjoi8gS7lEGY0VP-4" value="3" style="ellipse;whiteSpace=wrap;html=1;aspect=fixed;fillColor=none;fontSize=18;fontFamily=Segoe UI Variable Display;fontColor=#0066CC;strokeColor=#0066CC;" parent="1" vertex="1">
          <mxGeometry x="560" y="80" width="40" height="40" as="geometry" />
        </mxCell>
        <mxCell id="dAErLzjoi8gS7lEGY0VP-5" value="6" style="ellipse;whiteSpace=wrap;html=1;aspect=fixed;fillColor=none;fontSize=18;fontFamily=Segoe UI Variable Display;fontColor=#0066CC;strokeColor=#0066CC;" parent="1" vertex="1">
          <mxGeometry x="640" y="160" width="40" height="40" as="geometry" />
        </mxCell>
        <mxCell id="dAErLzjoi8gS7lEGY0VP-6" value="4" style="ellipse;whiteSpace=wrap;html=1;aspect=fixed;fillColor=none;fontSize=18;fontFamily=Segoe UI Variable Display;fontColor=#0066CC;strokeColor=#0066CC;" parent="1" vertex="1">
          <mxGeometry x="440" y="240" width="40" height="40" as="geometry" />
        </mxCell>
        <mxCell id="dAErLzjoi8gS7lEGY0VP-7" value="5" style="ellipse;whiteSpace=wrap;html=1;aspect=fixed;fillColor=none;fontSize=18;fontFamily=Segoe UI Variable Display;fontColor=#0066CC;strokeColor=#0066CC;" parent="1" vertex="1">
          <mxGeometry x="560" y="240" width="40" height="40" as="geometry" />
        </mxCell>
        <mxCell id="dAErLzjoi8gS7lEGY0VP-8" value="" style="endArrow=classic;html=1;fontFamily=Segoe UI Variable Display;fontSize=18;fontColor=#0066CC;rounded=0;strokeColor=#0066CC;endFill=0;exitX=1;exitY=0;exitDx=0;exitDy=0;entryX=0;entryY=1;entryDx=0;entryDy=0;" parent="1" source="dAErLzjoi8gS7lEGY0VP-1" target="dAErLzjoi8gS7lEGY0VP-3" edge="1">
          <mxGeometry width="50" height="50" relative="1" as="geometry">
            <mxPoint x="450" y="190" as="sourcePoint" />
            <mxPoint x="500" y="140" as="targetPoint" />
          </mxGeometry>
        </mxCell>
        <mxCell id="dAErLzjoi8gS7lEGY0VP-15" value="1" style="edgeLabel;html=1;align=center;verticalAlign=middle;resizable=0;points=[];fontSize=18;fontFamily=Segoe UI Variable Display;fontColor=#FF9933;" parent="dAErLzjoi8gS7lEGY0VP-8" vertex="1" connectable="0">
          <mxGeometry x="0.3055" y="-1" relative="1" as="geometry">
            <mxPoint as="offset" />
          </mxGeometry>
        </mxCell>
        <mxCell id="dAErLzjoi8gS7lEGY0VP-16" value="" style="endArrow=classic;html=1;fontFamily=Segoe UI Variable Display;fontSize=18;fontColor=#0066CC;rounded=0;strokeColor=#0066CC;endFill=0;exitX=0;exitY=1;exitDx=0;exitDy=0;entryX=1;entryY=0;entryDx=0;entryDy=0;" parent="1" source="dAErLzjoi8gS7lEGY0VP-5" target="dAErLzjoi8gS7lEGY0VP-7" edge="1">
          <mxGeometry width="50" height="50" relative="1" as="geometry">
            <mxPoint x="404.14213562373095" y="175.85786437626905" as="sourcePoint" />
            <mxPoint x="455.85786437626905" y="124.14213562373095" as="targetPoint" />
          </mxGeometry>
        </mxCell>
        <mxCell id="dAErLzjoi8gS7lEGY0VP-17" value="1" style="edgeLabel;html=1;align=center;verticalAlign=middle;resizable=0;points=[];fontSize=18;fontFamily=Segoe UI Variable Display;fontColor=#FF9933;" parent="dAErLzjoi8gS7lEGY0VP-16" vertex="1" connectable="0">
          <mxGeometry x="0.3055" y="-1" relative="1" as="geometry">
            <mxPoint as="offset" />
          </mxGeometry>
        </mxCell>
        <mxCell id="dAErLzjoi8gS7lEGY0VP-18" value="" style="endArrow=classic;html=1;fontFamily=Segoe UI Variable Display;fontSize=18;fontColor=#0066CC;rounded=0;strokeColor=#0066CC;endFill=0;exitX=0.5;exitY=1;exitDx=0;exitDy=0;" parent="1" source="dAErLzjoi8gS7lEGY0VP-3" target="dAErLzjoi8gS7lEGY0VP-6" edge="1">
          <mxGeometry width="50" height="50" relative="1" as="geometry">
            <mxPoint x="414.14213562373095" y="185.85786437626905" as="sourcePoint" />
            <mxPoint x="465.85786437626905" y="134.14213562373095" as="targetPoint" />
          </mxGeometry>
        </mxCell>
        <mxCell id="dAErLzjoi8gS7lEGY0VP-19" value="2" style="edgeLabel;html=1;align=center;verticalAlign=middle;resizable=0;points=[];fontSize=18;fontFamily=Segoe UI Variable Display;fontColor=#FF9933;" parent="dAErLzjoi8gS7lEGY0VP-18" vertex="1" connectable="0">
          <mxGeometry x="0.3055" y="-1" relative="1" as="geometry">
            <mxPoint as="offset" />
          </mxGeometry>
        </mxCell>
        <mxCell id="dAErLzjoi8gS7lEGY0VP-20" value="" style="endArrow=classic;html=1;fontFamily=Segoe UI Variable Display;fontSize=18;fontColor=#0066CC;rounded=0;strokeColor=#0066CC;endFill=0;exitX=1;exitY=0;exitDx=0;exitDy=0;entryX=0;entryY=1;entryDx=0;entryDy=0;" parent="1" source="dAErLzjoi8gS7lEGY0VP-6" target="dAErLzjoi8gS7lEGY0VP-4" edge="1">
          <mxGeometry width="50" height="50" relative="1" as="geometry">
            <mxPoint x="424.14213562373095" y="195.85786437626905" as="sourcePoint" />
            <mxPoint x="475.85786437626905" y="144.14213562373095" as="targetPoint" />
          </mxGeometry>
        </mxCell>
        <mxCell id="dAErLzjoi8gS7lEGY0VP-21" value="1" style="edgeLabel;html=1;align=center;verticalAlign=middle;resizable=0;points=[];fontSize=18;fontFamily=Segoe UI Variable Display;fontColor=#FF9933;" parent="dAErLzjoi8gS7lEGY0VP-20" vertex="1" connectable="0">
          <mxGeometry x="0.3055" y="-1" relative="1" as="geometry">
            <mxPoint as="offset" />
          </mxGeometry>
        </mxCell>
        <mxCell id="dAErLzjoi8gS7lEGY0VP-22" value="" style="endArrow=classic;html=1;fontFamily=Segoe UI Variable Display;fontSize=18;fontColor=#0066CC;rounded=0;strokeColor=#0066CC;endFill=0;entryX=0.5;entryY=1;entryDx=0;entryDy=0;exitX=0.5;exitY=1;exitDx=0;exitDy=0;" parent="1" source="dAErLzjoi8gS7lEGY0VP-7" target="dAErLzjoi8gS7lEGY0VP-6" edge="1">
          <mxGeometry width="50" height="50" relative="1" as="geometry">
            <mxPoint x="550" y="260" as="sourcePoint" />
            <mxPoint x="485.85786437626905" y="154.14213562373095" as="targetPoint" />
          </mxGeometry>
        </mxCell>
        <mxCell id="dAErLzjoi8gS7lEGY0VP-23" value="3" style="edgeLabel;html=1;align=center;verticalAlign=middle;resizable=0;points=[];fontSize=18;fontFamily=Segoe UI Variable Display;fontColor=#FF9933;" parent="dAErLzjoi8gS7lEGY0VP-22" vertex="1" connectable="0">
          <mxGeometry x="0.3055" y="-1" relative="1" as="geometry">
            <mxPoint as="offset" />
          </mxGeometry>
        </mxCell>
        <mxCell id="dAErLzjoi8gS7lEGY0VP-24" value="" style="endArrow=classic;html=1;fontFamily=Segoe UI Variable Display;fontSize=18;fontColor=#0066CC;rounded=0;strokeColor=#0066CC;endFill=0;entryX=0;entryY=0.5;entryDx=0;entryDy=0;exitX=1;exitY=0.5;exitDx=0;exitDy=0;" parent="1" source="dAErLzjoi8gS7lEGY0VP-6" target="dAErLzjoi8gS7lEGY0VP-7" edge="1">
          <mxGeometry width="50" height="50" relative="1" as="geometry">
            <mxPoint x="490" y="260" as="sourcePoint" />
            <mxPoint x="495.85786437626905" y="164.14213562373095" as="targetPoint" />
          </mxGeometry>
        </mxCell>
        <mxCell id="dAErLzjoi8gS7lEGY0VP-25" value="4" style="edgeLabel;html=1;align=center;verticalAlign=middle;resizable=0;points=[];fontSize=18;fontFamily=Segoe UI Variable Display;fontColor=#FF9933;" parent="dAErLzjoi8gS7lEGY0VP-24" vertex="1" connectable="0">
          <mxGeometry x="0.3055" y="-1" relative="1" as="geometry">
            <mxPoint as="offset" />
          </mxGeometry>
        </mxCell>
        <mxCell id="dAErLzjoi8gS7lEGY0VP-26" value="" style="endArrow=classic;html=1;fontFamily=Segoe UI Variable Display;fontSize=18;fontColor=#0066CC;rounded=0;strokeColor=#0066CC;endFill=0;exitX=0;exitY=0;exitDx=0;exitDy=0;entryX=1;entryY=1;entryDx=0;entryDy=0;" parent="1" source="dAErLzjoi8gS7lEGY0VP-6" target="dAErLzjoi8gS7lEGY0VP-1" edge="1">
          <mxGeometry width="50" height="50" relative="1" as="geometry">
            <mxPoint x="454.14213562373095" y="225.85786437626905" as="sourcePoint" />
            <mxPoint x="505.85786437626905" y="174.14213562373095" as="targetPoint" />
          </mxGeometry>
        </mxCell>
        <mxCell id="dAErLzjoi8gS7lEGY0VP-27" value="2" style="edgeLabel;html=1;align=center;verticalAlign=middle;resizable=0;points=[];fontSize=18;fontFamily=Segoe UI Variable Display;fontColor=#FF9933;" parent="dAErLzjoi8gS7lEGY0VP-26" vertex="1" connectable="0">
          <mxGeometry x="0.3055" y="-1" relative="1" as="geometry">
            <mxPoint as="offset" />
          </mxGeometry>
        </mxCell>
        <mxCell id="dAErLzjoi8gS7lEGY0VP-28" value="" style="endArrow=classic;html=1;fontFamily=Segoe UI Variable Display;fontSize=18;fontColor=#0066CC;rounded=0;strokeColor=#0066CC;endFill=0;exitX=1;exitY=1;exitDx=0;exitDy=0;entryX=0;entryY=0.5;entryDx=0;entryDy=0;" parent="1" source="dAErLzjoi8gS7lEGY0VP-3" target="dAErLzjoi8gS7lEGY0VP-5" edge="1">
          <mxGeometry width="50" height="50" relative="1" as="geometry">
            <mxPoint x="464.14213562373095" y="235.85786437626905" as="sourcePoint" />
            <mxPoint x="515.857864376269" y="184.14213562373095" as="targetPoint" />
          </mxGeometry>
        </mxCell>
        <mxCell id="dAErLzjoi8gS7lEGY0VP-29" value="7" style="edgeLabel;html=1;align=center;verticalAlign=middle;resizable=0;points=[];fontSize=18;fontFamily=Segoe UI Variable Display;fontColor=#FF9933;" parent="dAErLzjoi8gS7lEGY0VP-28" vertex="1" connectable="0">
          <mxGeometry x="0.3055" y="-1" relative="1" as="geometry">
            <mxPoint as="offset" />
          </mxGeometry>
        </mxCell>
        <mxCell id="dAErLzjoi8gS7lEGY0VP-30" value="" style="endArrow=classic;html=1;fontFamily=Segoe UI Variable Display;fontSize=18;fontColor=#0066CC;rounded=0;strokeColor=#0066CC;endFill=0;exitX=1;exitY=1;exitDx=0;exitDy=0;entryX=0;entryY=0;entryDx=0;entryDy=0;" parent="1" source="dAErLzjoi8gS7lEGY0VP-4" target="dAErLzjoi8gS7lEGY0VP-5" edge="1">
          <mxGeometry width="50" height="50" relative="1" as="geometry">
            <mxPoint x="474.14213562373095" y="245.85786437626905" as="sourcePoint" />
            <mxPoint x="525.857864376269" y="194.14213562373095" as="targetPoint" />
          </mxGeometry>
        </mxCell>
        <mxCell id="dAErLzjoi8gS7lEGY0VP-31" value="1" style="edgeLabel;html=1;align=center;verticalAlign=middle;resizable=0;points=[];fontSize=18;fontFamily=Segoe UI Variable Display;fontColor=#FF9933;" parent="dAErLzjoi8gS7lEGY0VP-30" vertex="1" connectable="0">
          <mxGeometry x="0.3055" y="-1" relative="1" as="geometry">
            <mxPoint as="offset" />
          </mxGeometry>
        </mxCell>
        <mxCell id="dAErLzjoi8gS7lEGY0VP-32" value="" style="endArrow=classic;html=1;fontFamily=Segoe UI Variable Display;fontSize=18;fontColor=#0066CC;rounded=0;strokeColor=#0066CC;endFill=0;exitX=1;exitY=0.5;exitDx=0;exitDy=0;entryX=0;entryY=0.5;entryDx=0;entryDy=0;" parent="1" source="dAErLzjoi8gS7lEGY0VP-3" target="dAErLzjoi8gS7lEGY0VP-4" edge="1">
          <mxGeometry width="50" height="50" relative="1" as="geometry">
            <mxPoint x="484.14213562373095" y="255.85786437626905" as="sourcePoint" />
            <mxPoint x="535.857864376269" y="204.14213562373095" as="targetPoint" />
          </mxGeometry>
        </mxCell>
        <mxCell id="dAErLzjoi8gS7lEGY0VP-33" value="5" style="edgeLabel;html=1;align=center;verticalAlign=middle;resizable=0;points=[];fontSize=18;fontFamily=Segoe UI Variable Display;fontColor=#FF9933;" parent="dAErLzjoi8gS7lEGY0VP-32" vertex="1" connectable="0">
          <mxGeometry x="0.3055" y="-1" relative="1" as="geometry">
            <mxPoint as="offset" />
          </mxGeometry>
        </mxCell>
        <mxCell id="0dhZpDFe6rEBt3_NG9yh-1" value="1" style="ellipse;whiteSpace=wrap;html=1;aspect=fixed;fillColor=none;fontSize=18;fontFamily=Segoe UI Variable Display;fontColor=#0066CC;strokeColor=#0066CC;" parent="1" vertex="1">
          <mxGeometry x="700" y="360" width="40" height="40" as="geometry" />
        </mxCell>
        <mxCell id="0dhZpDFe6rEBt3_NG9yh-2" value="2" style="ellipse;whiteSpace=wrap;html=1;aspect=fixed;fillColor=none;fontSize=18;fontFamily=Segoe UI Variable Display;fontColor=#0066CC;strokeColor=#0066CC;" parent="1" vertex="1">
          <mxGeometry x="780" y="280" width="40" height="40" as="geometry" />
        </mxCell>
        <mxCell id="0dhZpDFe6rEBt3_NG9yh-3" value="3" style="ellipse;whiteSpace=wrap;html=1;aspect=fixed;fillColor=none;fontSize=18;fontFamily=Segoe UI Variable Display;fontColor=#0066CC;strokeColor=#0066CC;" parent="1" vertex="1">
          <mxGeometry x="900" y="280" width="40" height="40" as="geometry" />
        </mxCell>
        <mxCell id="0dhZpDFe6rEBt3_NG9yh-4" value="6" style="ellipse;whiteSpace=wrap;html=1;aspect=fixed;fillColor=none;fontSize=18;fontFamily=Segoe UI Variable Display;fontColor=#0066CC;strokeColor=#0066CC;" parent="1" vertex="1">
          <mxGeometry x="980" y="360" width="40" height="40" as="geometry" />
        </mxCell>
        <mxCell id="0dhZpDFe6rEBt3_NG9yh-5" value="4" style="ellipse;whiteSpace=wrap;html=1;aspect=fixed;fillColor=none;fontSize=18;fontFamily=Segoe UI Variable Display;fontColor=#0066CC;strokeColor=#0066CC;" parent="1" vertex="1">
          <mxGeometry x="780" y="440" width="40" height="40" as="geometry" />
        </mxCell>
        <mxCell id="0dhZpDFe6rEBt3_NG9yh-7" value="" style="endArrow=classic;html=1;fontFamily=Segoe UI Variable Display;fontSize=18;fontColor=#0066CC;rounded=0;strokeColor=#00CC66;endFill=0;exitX=1;exitY=0;exitDx=0;exitDy=0;entryX=0;entryY=1;entryDx=0;entryDy=0;strokeWidth=2;" parent="1" source="0dhZpDFe6rEBt3_NG9yh-1" target="0dhZpDFe6rEBt3_NG9yh-2" edge="1">
          <mxGeometry width="50" height="50" relative="1" as="geometry">
            <mxPoint x="790" y="390" as="sourcePoint" />
            <mxPoint x="840" y="340" as="targetPoint" />
          </mxGeometry>
        </mxCell>
        <mxCell id="0dhZpDFe6rEBt3_NG9yh-8" value="1" style="edgeLabel;html=1;align=center;verticalAlign=middle;resizable=0;points=[];fontSize=18;fontFamily=Segoe UI Variable Display;fontColor=#00CC66;labelBackgroundColor=none;" parent="0dhZpDFe6rEBt3_NG9yh-7" vertex="1" connectable="0">
          <mxGeometry x="0.3055" y="-1" relative="1" as="geometry">
            <mxPoint x="1" y="7" as="offset" />
          </mxGeometry>
        </mxCell>
        <mxCell id="0dhZpDFe6rEBt3_NG9yh-11" value="" style="endArrow=classic;html=1;fontFamily=Segoe UI Variable Display;fontSize=18;fontColor=#0066CC;rounded=0;strokeColor=#00CC66;endFill=0;exitX=0.5;exitY=1;exitDx=0;exitDy=0;strokeWidth=2;" parent="1" source="0dhZpDFe6rEBt3_NG9yh-2" target="0dhZpDFe6rEBt3_NG9yh-5" edge="1">
          <mxGeometry width="50" height="50" relative="1" as="geometry">
            <mxPoint x="754.142135623731" y="385.85786437626905" as="sourcePoint" />
            <mxPoint x="805.857864376269" y="334.14213562373095" as="targetPoint" />
          </mxGeometry>
        </mxCell>
        <mxCell id="0dhZpDFe6rEBt3_NG9yh-12" value="2" style="edgeLabel;html=1;align=center;verticalAlign=middle;resizable=0;points=[];fontSize=18;fontFamily=Segoe UI Variable Display;fontColor=#00CC66;labelBackgroundColor=none;" parent="0dhZpDFe6rEBt3_NG9yh-11" vertex="1" connectable="0">
          <mxGeometry x="0.3055" y="-1" relative="1" as="geometry">
            <mxPoint x="-9" y="2" as="offset" />
          </mxGeometry>
        </mxCell>
        <mxCell id="0dhZpDFe6rEBt3_NG9yh-13" value="" style="endArrow=classic;html=1;fontFamily=Segoe UI Variable Display;fontSize=18;fontColor=#0066CC;rounded=0;strokeColor=#00CC66;endFill=0;exitX=1;exitY=0;exitDx=0;exitDy=0;entryX=0;entryY=1;entryDx=0;entryDy=0;strokeWidth=2;" parent="1" source="0dhZpDFe6rEBt3_NG9yh-5" target="0dhZpDFe6rEBt3_NG9yh-3" edge="1">
          <mxGeometry width="50" height="50" relative="1" as="geometry">
            <mxPoint x="764.142135623731" y="395.85786437626905" as="sourcePoint" />
            <mxPoint x="815.857864376269" y="344.14213562373095" as="targetPoint" />
          </mxGeometry>
        </mxCell>
        <mxCell id="0dhZpDFe6rEBt3_NG9yh-14" value="1" style="edgeLabel;html=1;align=center;verticalAlign=middle;resizable=0;points=[];fontSize=18;fontFamily=Segoe UI Variable Display;fontColor=#00CC66;labelBackgroundColor=none;" parent="0dhZpDFe6rEBt3_NG9yh-13" vertex="1" connectable="0">
          <mxGeometry x="0.3055" y="-1" relative="1" as="geometry">
            <mxPoint y="10" as="offset" />
          </mxGeometry>
        </mxCell>
        <mxCell id="0dhZpDFe6rEBt3_NG9yh-21" value="" style="endArrow=classic;html=1;fontFamily=Segoe UI Variable Display;fontSize=18;fontColor=#0066CC;rounded=0;strokeColor=#FF9999;endFill=0;exitX=1;exitY=1;exitDx=0;exitDy=0;entryX=0;entryY=0.5;entryDx=0;entryDy=0;strokeWidth=2;" parent="1" source="0dhZpDFe6rEBt3_NG9yh-2" target="0dhZpDFe6rEBt3_NG9yh-4" edge="1">
          <mxGeometry width="50" height="50" relative="1" as="geometry">
            <mxPoint x="804.142135623731" y="435.85786437626905" as="sourcePoint" />
            <mxPoint x="855.857864376269" y="384.14213562373095" as="targetPoint" />
          </mxGeometry>
        </mxCell>
        <mxCell id="0dhZpDFe6rEBt3_NG9yh-22" value="7" style="edgeLabel;html=1;align=center;verticalAlign=middle;resizable=0;points=[];fontSize=18;fontFamily=Segoe UI Variable Display;fontColor=#FF9999;labelBackgroundColor=none;" parent="0dhZpDFe6rEBt3_NG9yh-21" vertex="1" connectable="0">
          <mxGeometry x="0.3055" y="-1" relative="1" as="geometry">
            <mxPoint x="-2" y="12" as="offset" />
          </mxGeometry>
        </mxCell>
        <mxCell id="0dhZpDFe6rEBt3_NG9yh-23" value="" style="endArrow=classic;html=1;fontFamily=Segoe UI Variable Display;fontSize=18;fontColor=#0066CC;rounded=0;strokeColor=#00CC66;endFill=0;exitX=1;exitY=1;exitDx=0;exitDy=0;entryX=0;entryY=0;entryDx=0;entryDy=0;strokeWidth=2;" parent="1" source="0dhZpDFe6rEBt3_NG9yh-3" target="0dhZpDFe6rEBt3_NG9yh-4" edge="1">
          <mxGeometry width="50" height="50" relative="1" as="geometry">
            <mxPoint x="814.142135623731" y="445.85786437626905" as="sourcePoint" />
            <mxPoint x="865.857864376269" y="394.14213562373095" as="targetPoint" />
          </mxGeometry>
        </mxCell>
        <mxCell id="0dhZpDFe6rEBt3_NG9yh-24" value="1" style="edgeLabel;html=1;align=center;verticalAlign=middle;resizable=0;points=[];fontSize=18;fontFamily=Segoe UI Variable Display;fontColor=#00CC66;labelBackgroundColor=none;" parent="0dhZpDFe6rEBt3_NG9yh-23" vertex="1" connectable="0">
          <mxGeometry x="0.3055" y="-1" relative="1" as="geometry">
            <mxPoint y="-19" as="offset" />
          </mxGeometry>
        </mxCell>
        <mxCell id="LF4eD1gDKC2B4geTIv1t-1" value="" style="endArrow=classic;html=1;fontFamily=Segoe UI Variable Display;fontSize=18;fontColor=#0066CC;rounded=0;strokeColor=#FF9999;endFill=0;exitX=1;exitY=0;exitDx=0;exitDy=0;entryX=0;entryY=1;entryDx=0;entryDy=0;strokeWidth=2;" parent="1" edge="1">
          <mxGeometry width="50" height="50" relative="1" as="geometry">
            <mxPoint x="728" y="360" as="sourcePoint" />
            <mxPoint x="780" y="308" as="targetPoint" />
          </mxGeometry>
        </mxCell>
        <mxCell id="LF4eD1gDKC2B4geTIv1t-2" value="1" style="edgeLabel;html=1;align=center;verticalAlign=middle;resizable=0;points=[];fontSize=18;fontFamily=Segoe UI Variable Display;fontColor=#FF9999;labelBackgroundColor=none;" parent="LF4eD1gDKC2B4geTIv1t-1" vertex="1" connectable="0">
          <mxGeometry x="0.3055" y="-1" relative="1" as="geometry">
            <mxPoint x="-23" y="3" as="offset" />
          </mxGeometry>
        </mxCell>
        <mxCell id="uZk5OcxFdNsL8yi_G17Z-1" value="8" style="ellipse;whiteSpace=wrap;html=1;aspect=fixed;fillColor=none;fontSize=18;fontFamily=Segoe UI Variable Display;fontColor=#0066CC;strokeColor=#0066CC;" vertex="1" parent="1">
          <mxGeometry x="640" y="80" width="40" height="40" as="geometry" />
        </mxCell>
        <mxCell id="uZk5OcxFdNsL8yi_G17Z-2" value="7" style="ellipse;whiteSpace=wrap;html=1;aspect=fixed;fillColor=none;fontSize=18;fontFamily=Segoe UI Variable Display;fontColor=#0066CC;strokeColor=#0066CC;" vertex="1" parent="1">
          <mxGeometry x="480" y="320" width="40" height="40" as="geometry" />
        </mxCell>
      </root>
    </mxGraphModel>
  </diagram>
</mxfile>
